<svg width="60" height="60" viewBox="0 0 64 64" fill="none" xmlns="http://www.w3.org/2000/svg">
<circle cx="32" cy="32" r="31" fill="#F53838" stroke="#F53838" stroke-width="2"/>
<path d="M23.25 32.9999H38.075L33.5375 38.4499C33.3253 38.7052 33.2232 39.0343 33.2537 39.3648C33.2842 39.6953 33.4447 40.0002 33.7 40.2124C33.9553 40.4246 34.2844 40.5267 34.6149 40.4962C34.9454 40.4657 35.2503 40.3052 35.4625 40.0499L41.7125 32.5499C41.7545 32.4902 41.7922 32.4276 41.825 32.3624C41.825 32.2999 41.825 32.2624 41.9125 32.1999C41.9692 32.0566 41.9988 31.904 42 31.7499C41.9988 31.5958 41.9692 31.4432 41.9125 31.2999C41.9125 31.2374 41.9125 31.1999 41.825 31.1374C41.7922 31.0722 41.7545 31.0096 41.7125 30.9499L35.4625 23.4499C35.345 23.3088 35.1978 23.1953 35.0314 23.1175C34.8651 23.0398 34.6836 22.9996 34.5 22.9999C34.2079 22.9993 33.9249 23.101 33.7 23.2874C33.5734 23.3923 33.4688 23.5212 33.3921 23.6666C33.3154 23.8121 33.2682 23.9712 33.2531 24.1349C33.238 24.2987 33.2553 24.4637 33.3041 24.6208C33.3529 24.7778 33.4322 24.9236 33.5375 25.0499L38.075 30.4999H23.25C22.9185 30.4999 22.6005 30.6316 22.3661 30.866C22.1317 31.1004 22 31.4184 22 31.7499C22 32.0814 22.1317 32.3994 22.3661 32.6338C22.6005 32.8682 22.9185 32.9999 23.25 32.9999Z" fill="white"/>
</svg>
